<svg width="88" height="85" viewBox="0 0 88 85" fill="none" xmlns="http://www.w3.org/2000/svg">
<path d="M44 7.65708C55.748 7.65708 57.1413 7.69958 61.7797 7.905C66.5757 8.1175 71.5147 9.17292 75.009 12.5481C78.5363 15.9552 79.596 20.6798 79.816 25.3265C80.0287 29.8067 80.0727 31.1525 80.0727 42.5C80.0727 53.8475 80.0287 55.1933 79.816 59.6735C79.5997 64.2813 78.4813 69.0979 75.009 72.4519C71.4817 75.859 66.594 76.8825 61.7797 77.095C57.1413 77.3004 55.748 77.3429 44 77.3429C32.252 77.3429 30.8587 77.3004 26.2203 77.095C21.4867 76.886 16.434 75.781 12.991 72.4519C9.482 69.0625 8.404 64.2919 8.184 59.6735C7.97133 55.1933 7.92733 53.8475 7.92733 42.5C7.92733 31.1525 7.97133 29.8067 8.184 25.3265C8.40033 20.7365 9.52967 15.8915 12.991 12.5481C16.511 9.14813 21.4207 8.1175 26.2203 7.905C30.8587 7.69958 32.252 7.65708 44 7.65708ZM44 0C32.0503 0 30.5507 0.0495833 25.8573 0.255C19.0557 0.556042 12.3017 2.38354 7.38467 7.13292C2.44933 11.9 0.575667 18.4096 0.264 24.9758C0.0513333 29.5092 0 30.9577 0 42.5C0 54.0423 0.0513333 55.4908 0.264 60.0242C0.575667 66.5869 2.475 73.1283 7.38467 77.8671C12.3163 82.6306 19.0667 84.444 25.8573 84.745C30.5507 84.9504 32.0503 85 44 85C55.9497 85 57.4493 84.9504 62.1427 84.745C68.9407 84.444 75.702 82.6129 80.6153 77.8671C85.5543 73.0965 87.4243 66.5904 87.736 60.0242C87.9487 55.4908 88 54.0423 88 42.5C88 30.9577 87.9487 29.5092 87.736 24.9758C87.4243 18.406 85.5287 11.8787 80.6153 7.13292C75.691 2.37646 68.9223 0.5525 62.1427 0.255C57.4493 0.0495833 55.9497 0 44 0Z" fill="#2967C3"/>
<path d="M44 20.6763C31.5223 20.6763 21.406 30.4477 21.406 42.5C21.406 54.5523 31.5223 64.3238 44 64.3238C56.4777 64.3238 66.594 54.5523 66.594 42.5C66.594 30.4477 56.4777 20.6763 44 20.6763ZM44 56.6667C35.9003 56.6667 29.3333 50.3236 29.3333 42.5C29.3333 34.6765 35.9003 28.3334 44 28.3334C52.0997 28.3334 58.6667 34.6765 58.6667 42.5C58.6667 50.3236 52.0997 56.6667 44 56.6667Z" fill="#2967C3"/>
<path d="M67.4887 24.9119C70.4047 24.9119 72.7687 22.6286 72.7687 19.8119C72.7687 16.9953 70.4047 14.7119 67.4887 14.7119C64.5726 14.7119 62.2087 16.9953 62.2087 19.8119C62.2087 22.6286 64.5726 24.9119 67.4887 24.9119Z" fill="#2967C3"/>
</svg>
